<svg xmlns="http://www.w3.org/2000/svg" width="214" height="216" viewBox="0 0 214 216" version="1.1">
	<path d="M 93.500 17.491 C 92.950 17.675, 91.263 18.098, 89.750 18.432 C 86.419 19.166, 86.192 21.426, 89.250 23.423 C 90.487 24.232, 98.475 26.048, 107 27.460 C 130.933 31.424, 138.115 33.951, 143.777 40.399 C 150.033 47.524, 148.623 58.363, 140.691 64.109 C 135.201 68.086, 124.140 71.382, 107.500 73.998 C 90.684 76.643, 87 77.953, 87 81.288 C 87 84.640, 89.641 85.593, 107.317 88.612 C 115.668 90.039, 126.006 92.310, 130.292 93.660 C 145.218 98.360, 151.195 107.986, 145.862 118.738 C 141.558 127.415, 133.206 130.872, 105.244 135.551 C 97.403 136.863, 90.091 138.416, 88.994 139.003 C 86.467 140.355, 86.380 144.598, 88.851 145.920 C 89.869 146.465, 97.407 148.048, 105.601 149.439 C 113.796 150.829, 123.095 152.645, 126.267 153.475 C 137.613 156.443, 145.128 161.679, 146.630 167.662 C 147.379 170.646, 147.629 170.618, 153.554 166.880 C 160.270 162.644, 173.749 148.701, 177.855 141.743 C 186.232 127.545, 189.428 115.604, 189.428 98.500 C 189.428 84.773, 188.246 78.364, 183.592 66.842 C 174.265 43.751, 152.959 25.255, 128.468 18.992 C 122.518 17.470, 117.591 17.019, 107.590 17.079 C 100.391 17.122, 94.050 17.308, 93.500 17.491 M 62.103 30.169 C 51.141 37.331, 40.347 49.505, 34.149 61.694 C 29.075 71.674, 26.801 81.019, 26.263 94.107 C 25.660 108.789, 26.832 117.037, 31.096 128.092 C 40.364 152.124, 60.219 170.181, 85.362 177.441 C 92.641 179.543, 96.302 179.996, 105.862 179.976 C 124.715 179.936, 134.428 176.885, 132.414 171.635 C 131.490 169.228, 127.102 167.983, 110.625 165.452 C 88.352 162.031, 79.198 159.145, 73.155 153.637 C 67.584 148.560, 66.371 140.713, 70.263 134.937 C 75.567 127.067, 84.984 123.476, 110.625 119.544 C 131.091 116.406, 134.601 114.859, 132.055 110.104 C 130.836 107.825, 126.090 106.500, 112 104.503 C 80.546 100.046, 67.993 93.512, 68.004 81.602 C 68.014 69.816, 79.556 63.059, 106.500 59.064 C 124.860 56.342, 129.492 55.219, 131.497 53.003 C 132.787 51.578, 132.919 50.718, 132.087 49.163 C 130.668 46.512, 126.802 45.354, 113 43.448 C 88.608 40.079, 78.934 36.986, 72.423 30.475 L 68.159 26.212 62.103 30.169" stroke="none" fill="#fff" fill-rule="evenodd"/>
</svg>