<svg xmlns="http://www.w3.org/2000/svg" width="513" height="181" viewBox="0 0 513 181" version="1.1">
	<path d="M 118.081 1.368 C 115.101 1.997, 112.503 2.992, 112.307 3.579 C 111.359 6.422, 116.234 8.205, 132.651 11.021 C 152.671 14.455, 160.354 16.899, 165.808 21.567 C 175.721 30.053, 173.274 43.484, 160.757 49.284 C 154.250 52.299, 146.268 54.263, 129.524 56.969 C 116.556 59.065, 112 60.763, 112 63.500 C 112 66.368, 116.971 68.086, 133.606 70.968 C 158.371 75.259, 166.149 78.545, 169.904 86.302 C 173.489 93.706, 172.121 100.053, 165.731 105.663 C 160.520 110.238, 152.704 112.760, 133.740 115.987 C 117.189 118.803, 112 120.596, 112 123.500 C 112 126.296, 116.618 127.907, 132 130.480 C 157.591 134.760, 167.372 138.857, 170.116 146.445 C 170.823 148.400, 171.937 150, 172.591 150 C 173.245 150, 176.552 147.959, 179.940 145.465 C 202.416 128.920, 214.098 104.352, 212.710 76.552 C 212.058 63.507, 210.316 56.366, 205.132 45.500 C 191.785 17.522, 162.861 -0.323, 131.566 0.112 C 127.130 0.174, 121.062 0.739, 118.081 1.368 M 86.322 14.910 C 72.826 24.388, 62.453 38.338, 56.682 54.771 C 53.952 62.544, 53.571 65.045, 53.201 77.606 C 52.847 89.599, 53.103 92.969, 54.904 100.092 C 64.856 139.447, 103.107 165.487, 142.380 159.643 C 152.760 158.098, 157 156.150, 157 152.926 C 157 149.923, 151.771 148.161, 136.124 145.894 C 111.697 142.355, 100.488 138.130, 96.002 130.771 C 92.446 124.939, 93.758 117.281, 99.155 112.363 C 105.094 106.950, 114.284 104.103, 136.111 100.916 C 152.286 98.554, 157 97.039, 157 94.206 C 157 92.070, 154.495 89.534, 151.500 88.639 C 150.400 88.310, 143.235 87.124, 135.578 86.003 C 114.243 82.881, 105.053 80.013, 99.155 74.637 C 93.758 69.719, 92.446 62.061, 96.002 56.229 C 100.523 48.814, 111.415 44.752, 137 40.940 C 152.597 38.616, 157 37.088, 157 33.997 C 157 30.522, 152.547 28.893, 136.290 26.419 C 114.558 23.112, 105.581 20.227, 99.214 14.502 C 96.460 12.026, 94.005 10, 93.760 10 C 93.514 10, 90.168 12.209, 86.322 14.910 M 264.655 22.829 C 263.153 24.489, 263 30.336, 263 86.174 C 263 144.500, 263.095 147.776, 264.829 149.345 C 267.453 151.720, 273.258 151.477, 275.595 148.895 C 277.424 146.873, 277.500 144.376, 277.500 86 C 277.500 27.624, 277.424 25.126, 275.595 23.105 C 273.141 20.394, 266.999 20.239, 264.655 22.829 M 302 23 C 300.044 24.956, 300 26.333, 300 86 C 300 145.667, 300.044 147.044, 302 149 C 304.978 151.978, 310.330 151.667, 312.927 148.365 C 314.972 145.766, 315 144.913, 315 86 C 315 27.087, 314.972 26.234, 312.927 23.635 C 310.330 20.333, 304.978 20.022, 302 23 M 227.343 30.566 C 225.273 32.636, 224.895 33.748, 225.391 36.316 C 226.618 42.670, 233.642 45.138, 237.826 40.686 C 240.902 37.411, 240.698 32.694, 237.365 30.073 C 233.833 27.294, 230.448 27.461, 227.343 30.566 M 339.455 30.455 C 338.105 31.805, 337 34.075, 337 35.500 C 337 38.758, 341.140 43, 344.320 43 C 348.229 43, 352 39.367, 352 35.602 C 352 28.840, 344.249 25.660, 339.455 30.455 M 227.861 59.911 L 225.500 61.822 225.219 103.737 C 224.942 145.039, 224.969 145.690, 227.041 148.326 C 229.670 151.667, 235.005 151.995, 238 149 C 239.937 147.063, 240 145.667, 240 104.674 L 240 62.349 237.686 60.174 C 234.829 57.491, 230.978 57.388, 227.861 59.911 M 339.861 59.911 L 337.500 61.822 337.219 103.737 C 336.942 145.039, 336.969 145.690, 339.041 148.326 C 341.670 151.667, 347.005 151.995, 350 149 C 351.937 147.063, 352 145.667, 352 104.573 L 352 62.145 349.365 60.073 C 346.080 57.489, 342.919 57.435, 339.861 59.911 M 397.286 76.386 C 386.546 79.908, 377.727 87.985, 373.846 97.853 C 370.638 106.008, 370.698 120.137, 373.975 128.493 C 376.805 135.708, 385.045 144.410, 392.500 148.055 C 396.957 150.235, 398.802 150.500, 409.500 150.500 C 420.584 150.500, 421.971 150.282, 427.670 147.649 C 435.688 143.945, 438.240 141.233, 437.822 136.866 C 437.362 132.073, 433.304 130.161, 428.731 132.585 C 426.954 133.527, 423.743 135.212, 421.596 136.329 C 416.830 138.810, 408.889 139.586, 403.398 138.107 C 394.948 135.832, 386.767 128.086, 385.355 121.023 L 384.750 118 412.220 118 C 438.363 118, 439.777 117.904, 441.489 116.012 C 442.986 114.358, 443.179 112.988, 442.642 107.848 C 441.358 95.568, 433.293 83.916, 422.376 78.571 C 415.483 75.196, 403.971 74.193, 397.286 76.386 M 400.340 88.386 C 398.052 89.129, 394.821 90.703, 393.160 91.886 C 387.254 96.091, 383.844 104.959, 387.582 106.393 C 388.452 106.727, 397.622 107, 407.959 107 C 428.420 107, 429.873 106.615, 428.597 101.531 C 427.721 98.040, 422.385 92.237, 417.990 89.995 C 412.937 87.417, 405.433 86.733, 400.340 88.386" stroke="none" fill="#000000" fill-rule="evenodd"/>
</svg>