<svg width="100%" height="100%" viewBox="0 0 56 23" fill="none" xmlns="http://www.w3.org/2000/svg"><path d="M0 11.3041C0 11.4216 0.0017875 11.5386 0.00533673 11.6552L0.00764586 11.6721C0.0480154 11.9679 0.0869118 12.2528 0.127703 12.5212C0.326256 13.9724 0.530717 14.7216 1.04937 14.7216C1.56802 14.7216 1.77248 13.9724 1.97104 12.5212C2.0118 12.253 2.05067 11.9683 2.09101 11.6727C2.23801 10.5959 2.40465 9.37506 2.75363 8.28906C3.21051 6.92715 3.96146 5.7835 5.24607 5.7835C6.53068 5.7835 7.28162 6.92715 7.7385 8.28906C8.08748 9.37506 8.25405 10.5953 8.40104 11.6721C8.44141 11.9679 8.4803 12.2528 8.5211 12.5212C8.71965 13.9724 8.92411 14.7216 9.44276 14.7216C9.96142 14.7216 10.1659 13.9724 10.3644 12.5212C10.4052 12.2528 10.4441 11.9679 10.4845 11.6721C10.6315 10.5953 10.798 9.37506 11.147 8.28906C11.6039 6.92715 12.3548 5.7835 13.6395 5.7835C14.9241 5.7835 15.675 6.92715 16.1319 8.28906C16.4809 9.37506 16.6474 10.5953 16.7944 11.6721C16.8348 11.9679 16.8737 12.2528 16.9145 12.5212C17.113 13.9724 17.3175 14.7216 17.8362 14.7216C18.3548 14.7216 18.5593 13.9724 18.7578 12.5212C18.7986 12.2528 18.8375 11.9679 18.8779 11.6721C19.0249 10.5953 19.1914 9.37506 19.5404 8.28906C19.8908 7.24451 20.4142 6.32835 21.2187 5.9581C19.3157 2.41123 15.5781 0 11.2786 0C5.04961 0 0 5.06103 0 11.3041Z" fill="#333333"></path><path d="M22.5572 11.3041C22.5572 17.5472 17.5076 22.6082 11.2786 22.6082C7.03936 22.6082 3.34636 20.2641 1.41959 16.7986C3.43932 16.5025 3.87102 13.7397 4.31779 10.8805C4.36413 10.5839 4.41073 10.2857 4.45919 9.98969C4.6465 8.84547 4.84225 8.41237 5.24607 8.41237C5.64988 8.41237 5.84563 8.84547 6.03295 9.98969C6.08143 10.2858 6.12796 10.5836 6.17432 10.8803C6.64717 13.9065 7.10316 16.8247 9.44276 16.8247C11.7824 16.8247 12.2383 13.9066 12.7112 10.8805C12.7575 10.5837 12.8041 10.2858 12.8526 9.98969C13.0399 8.84547 13.2356 8.41237 13.6395 8.41237C14.0433 8.41237 14.239 8.84547 14.4263 9.98969C14.4748 10.2859 14.5214 10.5837 14.5677 10.8805C15.0406 13.9066 15.4966 16.8247 17.8362 16.8247C20.1758 16.8247 20.6317 13.9066 21.1046 10.8805C21.1509 10.5837 21.1975 10.2859 21.246 9.98969C21.4333 8.84547 21.629 8.41237 22.0329 8.41237C22.0898 8.41237 22.1426 8.42098 22.1918 8.43898C22.4303 9.354 22.5572 10.3142 22.5572 11.3041Z" fill="#333333"></path><path d="M30.6287 3.15464C30.6287 2.57389 31.0984 2.10309 31.6779 2.10309C32.2573 2.10309 32.7271 2.57389 32.7271 3.15464V19.4536C32.7271 20.0344 32.2573 20.5052 31.6779 20.5052C31.0984 20.5052 30.6287 20.0344 30.6287 19.4536V3.15464Z" fill="#333333"></path><path d="M25.6909 3.46335C25.893 3.26076 26.1433 3.15464 26.4416 3.15464C26.7304 3.15464 26.9807 3.26076 27.1732 3.46335C27.3753 3.66594 27.4812 3.90712 27.4812 4.19654C27.4812 4.4956 27.3753 4.74643 27.1732 4.94902C26.971 5.15161 26.7304 5.25773 26.4416 5.25773C26.1433 5.25773 25.893 5.15161 25.6909 4.94902C25.4887 4.74643 25.3828 4.4956 25.3828 4.19654C25.3828 3.91677 25.4887 3.66594 25.6909 3.46335Z" fill="#333333"></path><path d="M25.3828 8.41237C25.3828 7.83162 25.8526 7.36082 26.432 7.36082C27.0115 7.36082 27.4812 7.83162 27.4812 8.41237V19.4536C27.4812 20.0344 27.0115 20.5052 26.432 20.5052C25.8526 20.5052 25.3828 20.0344 25.3828 19.4536V8.41237Z" fill="#333333"></path><path d="M35.8746 3.15464C35.8746 2.57389 36.3443 2.10309 36.9238 2.10309C37.5032 2.10309 37.9729 2.57389 37.9729 3.15464V19.4536C37.9729 20.0344 37.5032 20.5052 36.9238 20.5052C36.3443 20.5052 35.8746 20.0344 35.8746 19.4536V3.15464Z" fill="#333333"></path><path d="M42.1793 3.15464C41.8809 3.15464 41.6306 3.26076 41.4285 3.46335C41.2263 3.66594 41.1205 3.91677 41.1205 4.19654C41.1205 4.4956 41.2263 4.74643 41.4285 4.94902C41.6306 5.15161 41.8809 5.25773 42.1793 5.25773C42.468 5.25773 42.7087 5.15161 42.9108 4.94902C43.1129 4.74643 43.2188 4.4956 43.2188 4.19654C43.2188 3.90712 43.1129 3.66594 42.9108 3.46335C42.7183 3.26076 42.468 3.15464 42.1793 3.15464Z" fill="#333333"></path><path d="M41.1205 8.41237C41.1205 7.83162 41.5902 7.36082 42.1696 7.36082C42.7491 7.36082 43.2188 7.83162 43.2188 8.41237V19.4536C43.2188 20.0344 42.7491 20.5052 42.1696 20.5052C41.5902 20.5052 41.1205 20.0344 41.1205 19.4536V8.41237Z" fill="#333333"></path><path d="M47.9488 15.8507H55.0718C55.337 15.8507 55.5643 15.7659 55.7348 15.5963C55.8958 15.4361 55.9811 15.2477 56 15.0216C55.9459 12.2593 53.7893 9.74527 50.942 9.74527C49.142 9.74527 47.4067 10.7722 46.547 12.3552C46.0859 13.2018 45.8745 14.1732 45.8745 15.1346C45.8745 16.1616 46.1113 17.0944 46.5849 17.9047C47.4896 19.4475 49.1319 20.5052 50.942 20.5052C51.7542 20.5052 52.5318 20.4372 53.31 20.1754C53.9635 19.9587 54.5129 19.6666 54.9486 19.3274C55.1777 19.1521 55.3086 18.8919 55.3086 18.6019C55.3086 18.1949 55.038 17.8505 54.6661 17.737C54.2726 17.6169 53.9449 17.8102 53.6415 18.0366C53.0371 18.5089 52.1853 18.7621 51.425 18.7621C50.4589 18.7621 49.6348 18.4889 48.9623 17.9424C48.3656 17.4619 47.9772 16.8306 47.7973 16.0674C47.763 15.9479 47.8132 15.8642 47.9488 15.8507ZM50.942 11.4883C52.4954 11.4883 53.7836 12.5247 54.0204 13.8061C54.0204 13.8156 54.0109 14.1359 53.6699 14.2113C51.8658 14.2113 50.059 14.1857 48.2551 14.2106C47.8828 14.2157 47.8471 13.8189 47.929 13.544C48.274 12.3858 49.4942 11.4883 50.942 11.4883Z" fill="#333333"></path></svg>