<svg width="850" height="552" viewBox="0 0 850 552" fill="none" xmlns="http://www.w3.org/2000/svg">
<path d="M171.192 342.385C172.971 342.385 174.736 342.363 176.515 342.306L176.766 342.27C181.25 341.66 185.554 341.065 189.629 340.448C211.603 337.434 222.952 334.328 222.952 326.458C222.952 318.589 211.603 315.482 189.629 312.469C185.569 311.845 181.257 311.264 176.781 310.654L176.773 310.64C160.46 308.416 141.98 305.891 125.53 300.589C104.905 293.659 87.594 282.26 87.594 262.761C87.594 243.262 104.905 231.855 125.53 224.933C141.98 219.631 160.46 217.099 176.766 214.875C181.25 214.265 185.554 213.669 189.629 213.052C211.603 210.032 222.952 206.926 222.952 199.063C222.952 191.186 211.603 188.08 189.629 185.067C185.554 184.443 181.25 183.862 176.766 183.245C160.46 181.014 141.98 178.481 125.53 173.194C104.905 166.257 87.594 154.857 87.594 135.366C87.594 115.86 104.905 104.46 125.53 97.5302C141.98 92.2287 160.46 89.7034 176.766 87.4723C181.25 86.8625 185.554 86.2671 189.629 85.6502C211.603 82.6299 222.952 79.5236 222.952 71.6609C222.952 63.7911 211.603 60.6848 189.629 57.6645C185.554 57.0476 181.25 56.4665 176.766 55.8423C160.46 53.6184 141.98 51.086 125.53 45.7917C109.718 40.4758 95.844 32.5342 90.2411 20.3098C36.5226 49.1993 -4.15935e-05 105.938 -3.87411e-05 171.192C-3.46081e-05 265.745 76.6393 342.385 171.192 342.385Z" fill="#242424"/>
<path d="M171.193 6.89808e-05C265.753 6.48474e-05 342.392 76.6466 342.392 171.192C342.392 235.543 306.888 291.593 254.404 320.834C249.913 290.179 208.088 283.637 164.779 276.843L164.765 276.843C160.281 276.147 155.769 275.444 151.285 274.705C133.967 271.857 127.403 268.88 127.403 262.761C127.403 256.627 133.967 253.657 151.285 250.816C155.783 250.077 160.281 249.374 164.779 248.671C210.607 241.497 254.798 234.574 254.798 199.063C254.798 163.552 210.607 156.622 164.779 149.448C160.288 148.745 155.783 148.042 151.285 147.31C133.967 144.455 127.403 141.485 127.403 135.365C127.403 129.232 133.967 126.262 151.285 123.421C155.783 122.675 160.288 121.979 164.779 121.269C210.607 114.095 254.798 107.172 254.798 71.6607C254.798 36.1496 210.607 29.2196 164.779 22.0456C160.288 21.3497 155.783 20.6396 151.285 19.9078C133.967 17.0597 127.403 14.0826 127.403 7.96317C127.403 7.09512 127.532 6.29162 127.805 5.54553C141.658 1.92986 156.206 6.96359e-05 171.193 6.89808e-05Z" fill="#242424"/>
<path d="M464.902 47.7771C464.902 38.9818 472.033 31.8437 480.829 31.8437C489.624 31.8437 496.748 38.9818 496.748 47.7771V294.604C496.748 303.407 489.624 310.523 480.829 310.523C472.033 310.523 464.902 303.407 464.902 294.604V47.7771Z" fill="#242424"/>
<path d="M389.95 52.4511C393.021 49.3807 396.816 47.7809 401.343 47.7809C405.726 47.7809 409.528 49.3807 412.448 52.4511C415.518 55.5216 417.132 59.1731 417.132 63.5564C417.132 68.0832 415.518 71.8782 412.448 74.9487C409.377 78.0191 405.726 79.6189 401.343 79.6189C396.816 79.6189 393.021 78.0191 389.95 74.9487C386.88 71.8782 385.28 68.0832 385.28 63.5564C385.28 59.3166 386.88 55.5216 389.95 52.4511Z" fill="#242424"/>
<path d="M385.278 127.402C385.278 118.607 392.409 111.469 401.205 111.469C409.993 111.469 417.124 118.607 417.124 127.402V294.605C417.124 303.408 409.993 310.524 401.205 310.524C392.409 310.524 385.278 303.408 385.278 294.605V127.402Z" fill="#242424"/>
<path d="M544.527 47.7771C544.527 38.9818 551.658 31.8437 560.453 31.8437C569.241 31.8437 576.372 38.9818 576.372 47.7771V294.604C576.372 303.407 569.241 310.523 560.453 310.523C551.658 310.523 544.527 303.407 544.527 294.604V47.7771Z" fill="#242424"/>
<path d="M640.219 47.7776C635.685 47.7776 631.897 49.3846 628.827 52.4479C625.749 55.5183 624.142 59.3205 624.142 63.5531C624.142 68.0799 625.749 71.8821 628.827 74.9454C631.897 78.0158 635.685 79.6228 640.219 79.6228C644.595 79.6228 648.254 78.0158 651.324 74.9454C654.395 71.8821 656.002 68.0799 656.002 63.5531C656.002 59.1699 654.395 55.5183 651.324 52.4479C648.404 49.3846 644.595 47.7776 640.219 47.7776Z" fill="#242424"/>
<path d="M624.149 127.402C624.149 118.607 631.28 111.469 640.075 111.469C648.863 111.469 655.994 118.607 655.994 127.402V294.605C655.994 303.408 648.863 310.524 640.075 310.524C631.28 310.524 624.149 303.408 624.149 294.605V127.402Z" fill="#242424"/>
<path d="M727.792 240.046H835.904C839.935 240.046 843.379 238.754 845.976 236.186C848.415 233.768 849.706 230.92 850.001 227.491C849.175 185.66 816.441 147.588 773.225 147.588C745.899 147.588 719.571 163.141 706.514 187.116C699.52 199.936 696.306 214.636 696.306 229.199C696.306 244.752 699.9 258.884 707.088 271.152C720.819 294.518 745.756 310.53 773.225 310.53C785.557 310.53 797.358 309.504 809.174 305.53C819.095 302.258 827.424 297.839 834.046 292.695C837.518 290.041 839.505 286.102 839.505 281.712C839.505 275.55 835.394 270.334 829.748 268.612C823.78 266.797 818.808 269.717 814.195 273.146C805.034 280.299 792.099 284.137 780.557 284.137C765.893 284.137 753.389 279.997 743.18 271.719C734.12 264.444 728.23 254.881 725.496 243.331C724.966 241.516 725.733 240.254 727.792 240.046ZM773.225 173.981C796.798 173.981 816.355 189.677 819.956 209.083C819.956 209.234 819.805 214.069 814.626 215.217C787.25 215.217 759.824 214.822 732.448 215.202C726.795 215.281 726.243 209.269 727.491 205.116C732.728 187.568 751.251 173.981 773.225 173.981Z" fill="#242424"/>
<path d="M332.281 551.71H344.329V440.6H332.281V551.71Z" fill="#242424"/>
<path d="M305.749 443.523H250.396V454.327H293.7V487.767H250.396V546.241H314.84V535.437H262.433V498.571H305.749V443.523Z" fill="#242424"/>
<path fill-rule="evenodd" clip-rule="evenodd" d="M425.862 484.714C427.478 480.894 428.296 476.747 428.296 472.24C428.296 467.842 427.478 463.727 425.862 459.929C424.324 456.11 422.097 452.847 419.205 450.129C416.378 447.335 412.963 445.174 408.946 443.646C404.93 442.042 400.532 441.235 395.741 441.235C390.884 441.235 386.443 442.042 382.426 443.646C378.487 445.174 375.082 447.335 372.168 450.129C369.352 452.847 367.126 456.11 365.511 459.929C363.972 463.727 363.208 467.842 363.208 472.24C363.208 476.747 363.972 480.894 365.511 484.714C367.126 488.534 369.352 491.786 372.168 494.493C375.082 497.297 378.487 499.458 382.426 500.975C386.443 502.503 390.884 503.267 395.741 503.267C400.532 503.267 404.93 502.503 408.946 500.975C412.963 499.458 416.378 497.297 419.205 494.493C422.097 491.786 424.324 488.534 425.862 484.714ZM410.736 457.889C414.414 461.861 416.247 466.663 416.247 472.24C416.247 477.937 414.414 482.761 410.736 486.744C407.069 490.64 402.071 492.594 395.741 492.594C389.335 492.594 384.304 490.64 380.626 486.744C377.035 482.761 375.245 477.937 375.245 472.24C375.245 466.663 377.035 461.861 380.626 457.889C384.304 453.905 389.335 451.908 395.741 451.908C402.071 451.908 407.069 453.905 410.736 457.889Z" fill="#242424"/>
<path fill-rule="evenodd" clip-rule="evenodd" d="M196.499 470.759C197.808 467.983 198.471 464.969 198.471 461.693C198.471 458.497 197.808 455.507 196.499 452.747C195.251 449.971 193.447 447.6 191.103 445.625C188.812 443.594 186.043 442.024 182.788 440.914C179.533 439.748 175.968 439.161 172.085 439.161C168.149 439.161 164.549 439.748 161.294 440.914C158.101 442.024 155.341 443.594 152.979 445.625C150.697 447.6 148.893 449.971 147.584 452.747C146.336 455.507 145.717 458.497 145.717 461.693C145.717 464.969 146.336 467.983 147.584 470.759C148.893 473.534 150.697 475.898 152.979 477.865C155.341 479.903 158.101 481.473 161.294 482.576C164.549 483.686 168.149 484.241 172.085 484.241C175.968 484.241 179.533 483.686 182.788 482.576C186.043 481.473 188.812 479.903 191.103 477.865C193.447 475.898 195.251 473.534 196.499 470.759ZM184.239 451.264C187.22 454.151 188.706 457.64 188.706 461.693C188.706 465.833 187.22 469.339 184.239 472.234C181.267 475.065 177.216 476.485 172.085 476.485C166.893 476.485 162.815 475.065 159.834 472.234C156.924 469.339 155.474 465.833 155.474 461.693C155.474 457.64 156.924 454.151 159.834 451.264C162.815 448.369 166.893 446.918 172.085 446.918C177.216 446.918 181.267 448.369 184.239 451.264Z" fill="#242424"/>
<path d="M446.36 551.71H458.408V440.6H446.36V551.71Z" fill="#242424"/>
<path d="M438.164 535.439H358.976V546.243H438.164V535.439Z" fill="#242424"/>
<path d="M688.938 441.104V485.347H703.409V440.602H715.458V551.713H703.409V496.152H688.938V550.436H676.889V441.104H688.938Z" fill="#242424"/>
<path d="M553.702 485.088H589.335V440.605H601.372V551.705H589.335V495.773H553.702V485.088Z" fill="#242424"/>
<path d="M635.989 454.33H620.896V443.525H669.068V454.33H647.82C647.689 457.953 647.536 461.587 647.339 464.163C646.914 469.838 646.357 475.305 645.68 480.555C648.409 490.988 652.294 501.018 657.336 510.687C661.789 519.167 666.995 526.752 672.932 533.442L664.594 541.943C660.152 536.891 656.07 531.27 652.338 525.049C648.06 517.846 644.469 510.556 641.577 503.19C639.787 510.556 637.594 517.846 635.04 525.049C632.115 533.278 628.95 539.979 622.838 549.245L612.569 542.697C621.703 528.716 627.739 511.899 630.936 495.692C633.752 483.763 635.531 468.288 635.989 454.33Z" fill="#242424"/>
<path d="M535.509 462.846C535.935 457.16 536.186 446.312 536.273 441.739H524.236C524.617 458.011 522.719 479.107 519.106 494.375C515.908 510.582 509.873 527.41 500.728 541.369L511.008 547.928C517.12 538.651 520.274 531.972 523.21 523.732C525.763 516.54 527.957 509.25 529.747 501.873C532.639 509.25 536.229 516.54 540.508 523.732C544.786 530.848 549.511 537.211 554.739 542.809L558.842 547.24L567.508 538.651L563.448 534.668C556.529 527.378 550.548 518.952 545.506 509.381C540.464 499.712 536.579 489.671 533.85 479.249C534.527 473.989 535.084 468.532 535.509 462.846Z" fill="#242424"/>
<path d="M229.731 502.227H216.288V439.161H229.731V502.227ZM233.48 542.275V551.862H151.916V524.435H216.547V516.183H151.657V506.838H165.359V496.037C159.93 496.199 149.977 496.231 149.977 496.231H134.207V487.421H151.787C157.991 487.421 171.047 487.421 171.047 487.421H190.177H209.308V496.037H194.394H178.802V506.838H229.731V533.294H165.101V542.275H233.48Z" fill="#242424"/>
</svg>
