<svg xmlns="http://www.w3.org/2000/svg" width="530" height="319" viewBox="0 0 530 319" version="1.1">
	<path d="M 122 1.384 C 117.593 2.313, 116.500 2.933, 116.500 4.508 C 116.500 7.446, 119.919 8.593, 137 11.380 C 155.653 14.423, 164.253 16.952, 169.922 21.058 C 175.289 24.946, 178.430 31.497, 177.517 36.901 C 175.523 48.704, 166.613 53.299, 135.500 58.571 C 119.920 61.211, 116 62.702, 116 65.988 C 116 68.975, 118.949 69.984, 136.887 73.135 C 160.645 77.307, 168.157 79.998, 173.711 86.324 C 182.388 96.206, 176.397 109.607, 160.942 114.887 C 157.399 116.098, 146.932 118.387, 137.683 119.973 C 120.466 122.927, 116 124.578, 116 127.988 C 116 130.895, 118.471 131.760, 134.682 134.527 C 152.690 137.601, 160.161 139.430, 165.774 142.139 C 170.956 144.640, 175.784 149.291, 176.609 152.577 C 176.943 153.910, 177.643 155, 178.163 155 C 180.516 155, 191.297 146.464, 198.167 139.161 C 203.960 133.003, 206.912 128.738, 210.864 120.819 C 217.428 107.664, 219.100 101.265, 219.729 86.887 C 220.829 61.734, 211.991 39.611, 194.101 22.734 C 175.082 4.792, 146.285 -3.735, 122 1.384 M 91.420 13.846 C 74.685 24.772, 62.060 42.291, 56.812 61.870 C 53.853 72.907, 53.887 93.403, 56.883 104.500 C 63.088 127.490, 79.086 146.961, 100.350 157.404 C 115.714 164.949, 130.844 167.423, 147.096 165.046 C 158.378 163.397, 162 161.825, 162 158.577 C 162 154.741, 158.390 153.470, 139.108 150.516 C 113.789 146.638, 103.841 142.707, 98.919 134.634 C 96.663 130.935, 96.436 124.985, 98.405 121.200 C 103.001 112.368, 113.918 108.087, 142.298 103.993 C 158.006 101.726, 162 100.192, 162 96.423 C 162 92.858, 158.146 91.508, 140.901 89.031 C 117.249 85.634, 107.573 82.374, 101.085 75.620 C 96.645 70.997, 95.707 63.382, 98.942 58.229 C 103.792 50.504, 114.885 46.247, 139.556 42.641 C 157.784 39.977, 161.500 38.681, 161.500 34.987 C 161.500 31.329, 156.575 29.388, 142.500 27.498 C 118.799 24.315, 106.763 20.268, 100.426 13.350 L 97.340 9.981 91.420 13.846 M 275.500 22.195 C 274.400 22.819, 273.169 23.818, 272.765 24.415 C 272.361 25.012, 272.024 54.118, 272.015 89.095 C 272.001 149.446, 272.093 152.774, 273.829 154.345 C 276.754 156.992, 282.471 156.487, 284.927 153.365 C 286.973 150.765, 287 149.932, 287 89.412 C 287 46.603, 286.665 27.359, 285.890 25.657 C 284.818 23.305, 281.187 20.968, 278.703 21.030 C 278.041 21.047, 276.600 21.571, 275.500 22.195 M 314.315 22.007 C 313.114 22.491, 311.651 23.783, 311.065 24.878 C 309.892 27.071, 309.493 149.515, 310.650 152.529 C 312.358 156.981, 321.708 157.282, 324.021 152.961 C 324.630 151.823, 325 127.449, 325 88.520 L 325 25.909 322.545 23.455 C 319.978 20.887, 317.971 20.534, 314.315 22.007 M 235.635 31.073 C 230.106 35.422, 233.334 44, 240.500 44 C 247.504 44, 250.540 36.450, 245.545 31.455 C 242.546 28.455, 239.130 28.323, 235.635 31.073 M 351.189 31.039 C 348.386 33.650, 348.185 39.953, 350.829 42.345 C 353.551 44.809, 359.210 44.469, 361.826 41.686 C 368.251 34.846, 358.055 24.642, 351.189 31.039 M 235.189 62.039 C 233.001 64.077, 233 64.103, 233 108.039 C 233 150.667, 233.061 152.061, 235 154 C 236.238 155.238, 238.333 156, 240.500 156 C 242.667 156, 244.762 155.238, 246 154 C 247.939 152.061, 248 150.667, 248 108.455 L 248 64.909 245.545 62.455 C 242.527 59.436, 238.170 59.261, 235.189 62.039 M 351 62 C 349.060 63.940, 349 65.333, 349 108.345 C 349 150.036, 349.109 152.789, 350.829 154.345 C 353.754 156.992, 359.471 156.487, 361.927 153.365 C 363.951 150.793, 364 149.717, 364 107.820 L 364 64.909 361.545 62.455 C 358.515 59.424, 353.780 59.220, 351 62 M 414.780 78.031 C 403.013 80.012, 392.722 87.732, 387.411 98.562 C 384.688 104.117, 384.500 105.274, 384.500 116.500 C 384.500 127.404, 384.743 129.018, 387.160 134.175 C 390.724 141.777, 396.668 148.005, 404.248 152.080 C 409.990 155.167, 411.357 155.472, 421 155.819 C 429.758 156.135, 432.550 155.843, 437.829 154.062 C 450.152 149.903, 454.775 145.191, 452.161 139.454 C 450.257 135.275, 446.624 135.288, 438.431 139.503 C 431.994 142.814, 430.246 143.274, 424.244 143.236 C 413.633 143.170, 405.999 139.221, 400.881 131.151 C 399.296 128.653, 398 125.572, 398 124.304 L 398 122 426.443 122 C 454.702 122, 454.897 121.986, 456.443 119.777 C 461.092 113.140, 453.937 94.489, 443.338 85.617 C 435.973 79.452, 424.476 76.398, 414.780 78.031 M 413.703 91.386 C 407.098 93.840, 402.348 97.649, 400.099 102.295 C 396.351 110.038, 396.249 110, 420.638 110 C 443.860 110, 443.963 109.974, 442.593 104.516 C 441.715 101.017, 436.369 95.229, 431.919 92.959 C 426.775 90.334, 418.464 89.617, 413.703 91.386 M 151 228.304 L 151 237.742 144.080 238.423 C 140.273 238.799, 131.611 239.028, 124.830 238.933 C 114.178 238.784, 112.456 238.981, 112.177 240.380 C 111.899 241.772, 113.058 242, 120.427 242 L 129 242 129 245.500 L 129 249 121 249 C 113.133 249, 113 249.042, 113 251.500 L 113 254 132.070 254 C 151.124 254, 151.139 254.002, 150.820 256.191 C 150.502 258.367, 150.369 258.380, 131.750 258.135 L 113 257.888 113 265.444 L 113 273 135.500 273 L 158 273 158 270.500 L 158 268 138.500 268 L 119 268 119 265.500 L 119 263 137.750 263.002 L 156.500 263.004 156.500 256.252 L 156.500 249.500 145 249 L 133.500 248.500 133.500 245.500 L 133.500 242.500 141.833 242.208 C 149.508 241.939, 150.208 242.078, 150.699 243.958 C 151.066 245.362, 152.057 246, 153.867 246.001 L 156.500 246.002 156.298 232.751 L 156.096 219.500 153.548 219.184 L 151 218.867 151 228.304 M 206.667 219.667 C 206.300 220.033, 206 232.183, 206 246.667 L 206 273 209 273 L 212 273 212 246 L 212 219 209.667 219 C 208.383 219, 207.033 219.300, 206.667 219.667 M 262 245.934 L 262 273 265.016 273 L 268.033 273 267.766 246.250 L 267.500 219.500 264.750 219.184 L 262 218.867 262 245.934 M 331.784 229.750 L 331.500 240.500 322.750 240.789 C 314.238 241.070, 314 241.144, 314 243.500 C 314 245.856, 314.238 245.930, 322.750 246.211 L 331.500 246.500 331.779 259.750 L 332.058 273 334.529 273 L 337 273 337 246 L 337 219 334.534 219 C 332.083 219, 332.066 219.066, 331.784 229.750 M 374.709 219.624 C 374.319 220.014, 374 232.183, 374 246.667 L 374 273 376.971 273 L 379.942 273 380.221 259.750 L 380.500 246.500 383.500 246.500 L 386.500 246.500 386.779 259.750 L 387.058 273 390.029 273 L 393 273 393 246 L 393 219 390 219 L 387 219 387 230 L 387 241 383.534 241 L 380.068 241 379.784 230.250 C 379.521 220.299, 379.348 219.478, 377.459 219.208 C 376.336 219.047, 375.099 219.235, 374.709 219.624 M 228.299 221.960 C 220.195 226.901, 219.192 239.099, 226.350 245.674 C 230.900 249.854, 237.298 250.922, 243.529 248.542 C 254.715 244.270, 256.208 229.021, 246.102 222.270 C 241.634 219.285, 232.934 219.133, 228.299 221.960 M 299.926 223.250 C 299.885 225.037, 299.707 227.400, 299.530 228.500 C 299.353 229.600, 298.922 233.562, 298.571 237.304 C 297.860 244.890, 293.887 258.537, 290.739 264.206 C 289.038 267.269, 288.904 268.179, 289.963 269.456 C 290.668 270.305, 291.857 271, 292.606 271 C 294.169 271, 297.933 263.915, 300.442 256.250 C 301.387 253.363, 302.323 251, 302.522 251 C 302.720 251, 304.339 253.732, 306.119 257.071 C 307.898 260.410, 311.040 265.023, 313.100 267.321 C 316.692 271.329, 316.920 271.428, 318.656 269.731 C 319.938 268.479, 320.179 267.559, 319.483 266.579 C 309.887 253.076, 303.648 240.539, 304.483 236.440 C 304.701 235.373, 305.105 231.238, 305.381 227.250 L 305.884 220 302.942 220 C 300.305 220, 299.992 220.337, 299.926 223.250 M 115.149 222.647 C 107.300 226.630, 109.311 233.374, 119.100 235.895 C 134.152 239.772, 148.395 230.827, 138.678 223.599 C 134.787 220.705, 120.144 220.112, 115.149 222.647 M 166 223.500 L 166 226 176.500 226 L 187 226 187 233.965 L 187 241.930 176.750 242.215 L 166.500 242.500 166.500 256.500 L 166.500 270.500 182.319 270.776 L 198.138 271.051 197.819 268.276 L 197.500 265.500 184.712 265.220 L 171.923 264.940 172.212 256.220 L 172.500 247.500 182.751 247.500 L 193.003 247.500 193.001 234.250 L 193 221 179.500 221 L 166 221 166 223.500 M 347 223.500 C 347 225.707, 347.425 226, 350.629 226 L 354.258 226 353.545 234.179 C 352.725 243.574, 349.133 256.830, 345.424 264.150 C 342.983 268.966, 342.951 269.246, 344.686 270.561 C 345.684 271.318, 346.827 271.951, 347.227 271.968 C 348.643 272.030, 351.534 266.495, 354.148 258.718 L 356.797 250.838 359.907 256.669 C 361.618 259.876, 364.110 263.850, 365.445 265.500 L 367.871 268.500 369.947 266.460 L 372.024 264.421 369.405 260.960 C 365.967 256.417, 360.176 244.455, 359.392 240.278 C 359.052 238.461, 359.081 234.505, 359.458 231.487 L 360.144 226 365.072 226 C 369.662 226, 370 225.828, 370 223.500 L 370 221 358.500 221 L 347 221 347 223.500 M 121.096 224.260 C 119.224 224.942, 117.199 226.315, 116.596 227.311 C 115.696 228.797, 116.003 229.558, 118.306 231.561 C 121.636 234.456, 128.406 234.875, 133.050 232.474 C 141.172 228.274, 130.401 220.872, 121.096 224.260 M 231.750 226.080 C 229.470 227.408, 227 232.241, 227 235.374 C 227 238.543, 231.233 243.591, 234.598 244.435 C 238.183 245.335, 243.516 243.388, 245.418 240.485 C 249.707 233.939, 245.011 224.969, 237.327 225.030 C 235.222 225.047, 232.712 225.519, 231.750 226.080 M 219.688 265.645 C 219.310 266.024, 219 267.383, 219 268.667 L 219 271 238.566 271 L 258.133 271 257.816 268.250 L 257.500 265.500 238.938 265.229 C 228.729 265.079, 220.066 265.267, 219.688 265.645" stroke="none" fill="#000000" fill-rule="evenodd"/>
</svg>