<svg width="398" height="160" viewBox="0 0 398 160" fill="none" xmlns="http://www.w3.org/2000/svg">
<path d="M80.1808 160C81.0158 160 81.8453 159.989 82.6692 159.961L82.7909 159.945C84.8922 159.657 86.9105 159.386 88.8127 159.093C99.109 157.683 104.423 156.234 104.423 152.557C104.423 148.874 99.109 147.431 88.8127 146.021C86.9105 145.733 84.8922 145.457 82.7964 145.169L82.7909 145.164C75.1543 144.124 66.4948 142.946 58.7919 140.469C49.137 137.229 41.0194 131.904 41.0194 122.791C41.0194 113.678 49.137 108.352 58.7919 105.107C66.4948 102.635 75.1543 101.451 82.7909 100.412C84.8922 100.124 86.9105 99.8478 88.8127 99.5602C99.109 98.1502 104.423 96.7014 104.423 93.0241C104.423 89.3469 99.109 87.8926 88.8127 86.4825C86.9105 86.1949 84.8922 85.924 82.7909 85.6364C75.1543 84.5913 66.4948 83.408 58.7919 80.9306C49.137 77.6902 41.0194 72.3651 41.0194 63.2577C41.0194 54.1392 49.137 48.8196 58.7919 45.5792C66.4948 43.0964 75.1543 41.9185 82.7909 40.8789C84.8921 40.5859 86.9105 40.3094 88.8127 40.0274C99.109 38.6173 104.423 37.163 104.423 33.4857C104.423 29.8085 99.109 28.3541 88.8127 26.9496C86.9105 26.662 84.8921 26.3856 82.7909 26.098C75.1543 25.0584 66.4948 23.8751 58.7919 21.4033C51.3821 18.9094 44.8902 15.199 42.2636 9.49229C17.1034 22.9959 1.19292e-05 49.5053 1.32623e-05 80.0017C1.51933e-05 124.179 35.8989 160 80.1808 160Z" fill="black"/>
<path d="M80.181 3.58357e-05C124.463 3.39001e-05 160.362 35.8215 160.362 80.0039C160.362 110.069 143.734 136.269 119.154 149.927C117.053 135.605 97.4558 132.542 77.1784 129.373C75.0771 129.047 72.9592 128.715 70.8579 128.372C62.7403 127.045 59.6713 125.657 59.6713 122.787C59.6713 119.923 62.7403 118.54 70.8579 117.208C72.9592 116.865 75.0715 116.533 77.1784 116.207C98.6392 112.85 119.342 109.616 119.342 93.0209C119.342 76.4262 98.6392 73.1913 77.1784 69.8403C75.0715 69.5085 72.9592 69.1823 70.8579 68.8339C62.7403 67.5068 59.6713 66.1188 59.6713 63.2544C59.6713 60.39 62.7403 59.0021 70.8579 57.6749C72.9592 57.3266 75.0715 57.0003 77.1784 56.6685C98.6392 53.3175 119.342 50.0826 119.342 33.488C119.342 16.8933 98.6392 13.6584 77.1783 10.3019C75.0715 9.97564 72.9592 9.64385 70.8579 9.30101C62.7403 7.96835 59.6713 6.5804 59.6713 3.72153C59.6713 3.31787 59.7321 2.94184 59.8593 2.59347C66.3512 0.901379 73.1582 3.61427e-05 80.181 3.58357e-05Z" fill="black"/>
<path d="M217.433 22.1946C217.433 18.075 220.767 14.7351 224.876 14.7351C228.985 14.7351 232.313 18.075 232.313 22.1946V137.804C232.313 141.924 228.985 145.264 224.876 145.264C220.767 145.264 217.433 141.924 217.433 137.804V22.1946Z" fill="black"/>
<path d="M182.408 24.3846C183.84 22.9469 185.615 22.1949 187.733 22.1949C189.779 22.1949 191.554 22.9469 192.92 24.3846C194.357 25.8223 195.109 27.531 195.109 29.5825C195.109 31.706 194.357 33.4865 192.92 34.9242C191.487 36.362 189.779 37.114 187.733 37.114C185.615 37.114 183.84 36.362 182.408 34.9242C180.97 33.4865 180.218 31.706 180.218 29.5825C180.218 27.6029 180.97 25.8223 182.408 24.3846Z" fill="black"/>
<path d="M180.221 59.4875C180.221 55.3679 183.555 52.0279 187.664 52.0279C191.778 52.0279 195.107 55.3679 195.107 59.4875V137.805C195.107 141.924 191.778 145.264 187.664 145.264C183.555 145.264 180.221 141.924 180.221 137.805V59.4875Z" fill="black"/>
<path d="M254.64 22.1946C254.64 18.075 257.974 14.7351 262.083 14.7351C266.197 14.7351 269.526 18.075 269.526 22.1946V137.804C269.526 141.924 266.197 145.264 262.083 145.264C257.974 145.264 254.64 141.924 254.64 137.804V22.1946Z" fill="black"/>
<path d="M299.363 22.1949C297.245 22.1949 295.47 22.9469 294.033 24.3846C292.601 25.8223 291.854 27.6029 291.854 29.5825C291.854 31.706 292.601 33.4865 294.033 34.9242C295.47 36.362 297.245 37.114 299.363 37.114C301.409 37.114 303.118 36.362 304.545 34.9242C305.982 33.4865 306.734 31.706 306.734 29.5825C306.734 27.531 305.982 25.8223 304.545 24.3846C303.184 22.9469 301.409 22.1949 299.363 22.1949Z" fill="black"/>
<path d="M291.852 59.4875C291.852 55.3679 295.186 52.0279 299.295 52.0279C303.403 52.0279 306.732 55.3679 306.732 59.4875V137.805C306.732 141.924 303.403 145.264 299.295 145.264C295.186 145.264 291.852 141.924 291.852 137.805V59.4875Z" fill="black"/>
<path d="M361.513 81.3068C372.534 81.3068 381.675 88.6613 383.35 97.7466C383.35 97.813 383.284 100.086 380.867 100.622C368.072 100.622 355.254 100.44 342.458 100.617C339.815 100.655 339.56 97.8351 340.147 95.8886C342.591 87.6715 351.25 81.3068 361.513 81.3068ZM340.285 112.251H390.81C392.69 112.251 394.305 111.648 395.51 110.448C396.649 109.309 397.258 107.971 397.39 106.367C397.009 86.7757 381.708 68.9423 361.513 68.9423C348.745 68.9423 336.442 76.2305 330.342 87.4558C327.069 93.4611 325.57 100.351 325.57 107.169C325.57 114.457 327.251 121.071 330.608 126.816C337.028 137.76 348.679 145.263 361.513 145.263C367.275 145.263 372.794 144.782 378.313 142.924C382.947 141.387 386.845 139.313 389.936 136.914C391.562 135.664 392.491 133.822 392.491 131.765C392.491 128.879 390.572 126.435 387.929 125.627C385.136 124.776 382.819 126.147 380.663 127.751C376.377 131.102 370.339 132.899 364.942 132.899C358.091 132.899 352.24 130.958 347.474 127.087C343.238 123.675 340.484 119.202 339.212 113.788C338.969 112.937 339.323 112.345 340.285 112.251Z" fill="black"/>
</svg>
