<svg width="800" height="323" viewBox="0 0 800 323" fill="none" xmlns="http://www.w3.org/2000/svg">
<path d="M161.415 322.101C163.096 322.101 164.766 322.079 166.424 322.023L166.669 321.99C170.899 321.411 174.963 320.866 178.792 320.276C199.52 317.437 210.218 314.52 210.218 307.118C210.218 299.704 199.52 296.798 178.792 293.959C174.963 293.381 170.899 292.824 166.68 292.245L166.669 292.234C151.296 290.141 133.863 287.77 118.356 282.783C98.9195 276.26 82.5776 265.539 82.5776 247.194C82.5776 228.848 98.9195 218.128 118.356 211.593C133.863 206.617 151.296 204.235 166.669 202.142C170.899 201.563 174.963 201.007 178.792 200.428C199.52 197.589 210.218 194.673 210.218 187.27C210.218 179.867 199.52 176.939 178.792 174.101C174.963 173.522 170.899 172.976 166.669 172.398C151.296 170.294 133.863 167.911 118.356 162.924C98.9195 156.401 82.5776 145.681 82.5776 127.346C82.5776 108.989 98.9195 98.2803 118.356 91.757C133.863 86.7587 151.296 84.3875 166.669 82.2947C170.899 81.7047 174.963 81.1481 178.792 80.5804C199.52 77.7417 210.218 74.814 210.218 67.4112C210.218 60.0083 199.52 57.0806 178.792 54.2531C174.963 53.6742 170.899 53.1176 166.669 52.5387C151.296 50.4459 133.863 48.0637 118.356 43.0876C103.439 38.0671 90.3701 30.5975 85.0823 19.1092C34.4315 46.2937 4.43276e-05 99.6607 4.70112e-05 161.054C5.08986e-05 249.988 72.2693 322.101 161.415 322.101Z" fill="white"/>
<path d="M161.415 -2.01741e-05C250.561 -2.40707e-05 322.83 72.1134 322.83 161.058C322.83 221.583 289.356 274.327 239.874 301.823C235.644 272.991 196.192 266.824 155.371 260.445C151.14 259.789 146.877 259.121 142.647 258.431C126.305 255.759 120.126 252.965 120.126 247.187C120.126 241.421 126.305 238.638 142.647 235.955C146.877 235.265 151.129 234.597 155.371 233.94C198.574 227.183 240.252 220.671 240.252 187.263C240.252 153.856 198.574 147.344 155.371 140.598C151.129 139.93 146.877 139.273 142.647 138.572C126.305 135.9 120.126 133.106 120.126 127.339C120.126 121.573 126.305 118.779 142.647 116.107C146.877 115.406 151.129 114.749 155.371 114.081C198.574 107.335 240.252 100.823 240.252 67.4157C240.252 34.0084 198.574 27.4962 155.371 20.739C151.129 20.0822 146.877 19.4143 142.647 18.7241C126.305 16.0413 120.126 13.2471 120.126 7.49185C120.126 6.67922 120.249 5.92223 120.505 5.22091C133.574 1.8145 147.278 -1.95561e-05 161.415 -2.01741e-05Z" fill="white"/>
<path d="M437.722 44.6809C437.722 36.3875 444.435 29.6638 452.706 29.6638C460.977 29.6638 467.678 36.3875 467.678 44.6809V277.419C467.678 285.712 460.977 292.436 452.706 292.436C444.435 292.436 437.722 285.712 437.722 277.419V44.6809Z" fill="white"/>
<path d="M367.211 49.0896C370.094 46.1953 373.668 44.6813 377.931 44.6813C382.05 44.6813 385.624 46.1953 388.373 49.0896C391.268 51.9839 392.782 55.4237 392.782 59.5537C392.782 63.8284 391.268 67.413 388.373 70.3073C385.49 73.2016 382.05 74.7156 377.931 74.7156C373.668 74.7156 370.094 73.2016 367.211 70.3073C364.317 67.413 362.803 63.8284 362.803 59.5537C362.803 55.5684 364.317 51.9839 367.211 49.0896Z" fill="white"/>
<path d="M362.808 119.756C362.808 111.463 369.521 104.739 377.792 104.739C386.074 104.739 392.776 111.463 392.776 119.756V277.419C392.776 285.713 386.074 292.437 377.792 292.437C369.521 292.437 362.808 285.713 362.808 277.419V119.756Z" fill="white"/>
<path d="M512.624 44.6809C512.624 36.3875 519.336 29.6638 527.608 29.6638C535.89 29.6638 542.591 36.3875 542.591 44.6809V277.419C542.591 285.712 535.89 292.436 527.608 292.436C519.336 292.436 512.624 285.712 512.624 277.419V44.6809Z" fill="white"/>
<path d="M602.659 44.6813C598.395 44.6813 594.822 46.1953 591.927 49.0896C589.044 51.9839 587.541 55.5684 587.541 59.5537C587.541 63.8284 589.044 67.413 591.927 70.3073C594.822 73.2016 598.395 74.7156 602.659 74.7156C606.777 74.7156 610.217 73.2016 613.089 70.3073C615.984 67.413 617.498 63.8284 617.498 59.5537C617.498 55.4237 615.984 51.9839 613.089 49.0896C610.351 46.1953 606.777 44.6813 602.659 44.6813Z" fill="white"/>
<path d="M587.537 119.756C587.537 111.463 594.249 104.739 602.52 104.739C610.791 104.739 617.493 111.463 617.493 119.756V277.419C617.493 285.713 610.791 292.437 602.52 292.437C594.249 292.437 587.537 285.713 587.537 277.419V119.756Z" fill="white"/>
<path d="M727.775 163.681C749.962 163.681 768.363 178.487 771.736 196.777C771.736 196.91 771.602 201.486 766.738 202.566C740.978 202.566 715.174 202.198 689.414 202.554C684.093 202.632 683.581 196.955 684.761 193.037C689.681 176.494 707.114 163.681 727.775 163.681ZM685.039 225.976H786.753C790.538 225.976 793.788 224.763 796.215 222.347C798.508 220.054 799.733 217.36 800 214.132C799.232 174.691 768.43 138.79 727.775 138.79C702.071 138.79 677.303 153.462 665.024 176.06C658.434 188.15 655.417 202.02 655.417 215.746C655.417 230.418 658.801 243.732 665.558 255.298C678.483 277.328 701.938 292.435 727.775 292.435C739.375 292.435 750.485 291.466 761.595 287.726C770.923 284.631 778.771 280.456 784.994 275.625C788.267 273.109 790.137 269.402 790.137 265.261C790.137 259.45 786.274 254.53 780.953 252.905C775.331 251.19 770.667 253.951 766.326 257.179C757.698 263.925 745.542 267.543 734.677 267.543C720.885 267.543 709.107 263.636 699.511 255.844C690.984 248.975 685.44 239.969 682.88 229.071C682.39 227.357 683.102 226.165 685.039 225.976Z" fill="white"/>
</svg>
