<svg width="800" height="520" viewBox="0 0 800 520" fill="none" xmlns="http://www.w3.org/2000/svg">
<path d="M161.122 322.244C162.797 322.244 164.457 322.224 166.132 322.17L166.368 322.136C170.588 321.562 174.639 321.002 178.475 320.421C199.156 317.585 209.837 314.662 209.837 307.255C209.837 299.848 199.156 296.924 178.475 294.088C174.653 293.501 170.595 292.954 166.382 292.38L166.375 292.367C151.021 290.274 133.628 287.897 118.146 282.907C98.7339 276.385 82.4415 265.656 82.4415 247.304C82.4415 228.952 98.7339 218.217 118.146 211.701C133.628 206.711 151.021 204.328 166.368 202.235C170.588 201.661 174.639 201.101 178.475 200.52C199.156 197.677 209.837 194.754 209.837 187.354C209.837 179.94 199.156 177.016 178.475 174.18C174.639 173.593 170.588 173.046 166.368 172.465C151.021 170.366 133.628 167.982 118.146 163.006C98.7339 156.477 82.4415 145.748 82.4415 127.403C82.4415 109.044 98.7339 98.3154 118.146 91.793C133.628 86.8034 151.021 84.4267 166.368 82.3268C170.588 81.7529 174.639 81.1925 178.475 80.6118C199.156 77.7692 209.837 74.8456 209.837 67.4455C209.837 60.0386 199.156 57.115 178.475 54.2724C174.639 53.6918 170.588 53.1448 166.368 52.5574C151.021 50.4643 133.628 48.0809 118.146 43.0979C103.264 38.0947 90.2062 30.6203 84.9329 19.115C34.3743 46.3051 5.31225e-05 99.7063 5.5807e-05 161.122C5.9697e-05 250.113 72.1312 322.244 161.122 322.244Z" fill="black"/>
<path d="M161.123 6.29769e-05C250.12 5.90867e-05 322.251 72.138 322.251 161.122C322.251 221.687 288.836 274.44 239.439 301.961C235.212 273.11 195.848 266.952 155.086 260.558L155.073 260.558C150.853 259.903 146.606 259.242 142.386 258.546C126.087 255.866 119.909 253.063 119.909 247.304C119.909 241.531 126.087 238.736 142.386 236.062C146.62 235.367 150.853 234.705 155.086 234.043C198.218 227.291 239.81 220.776 239.81 187.353C239.81 153.931 198.218 147.409 155.086 140.657C150.86 139.995 146.62 139.333 142.386 138.645C126.087 135.958 119.909 133.162 119.909 127.403C119.909 121.63 126.087 118.835 142.386 116.161C146.62 115.459 150.86 114.804 155.086 114.135C198.218 107.383 239.81 100.868 239.81 67.4454C239.81 34.0232 198.218 27.5008 155.086 20.7488C150.86 20.0939 146.62 19.4255 142.386 18.7368C126.087 16.0562 119.909 13.2542 119.909 7.49474C119.909 6.67776 120.03 5.92153 120.287 5.21932C133.325 1.81633 147.018 6.35934e-05 161.123 6.29769e-05Z" fill="black"/>
<path d="M437.555 44.9663C437.555 36.6884 444.267 29.9702 452.545 29.9702C460.822 29.9702 467.527 36.6884 467.527 44.9663V277.274C467.527 285.559 460.822 292.257 452.545 292.257C444.267 292.257 437.555 285.559 437.555 277.274V44.9663Z" fill="black"/>
<path d="M367.012 49.3659C369.902 46.476 373.474 44.9704 377.734 44.9704C381.86 44.9704 385.438 46.476 388.186 49.3659C391.076 52.2557 392.595 55.6925 392.595 59.8179C392.595 64.0784 391.076 67.6502 388.186 70.54C385.296 73.4299 381.86 74.9355 377.734 74.9355C373.474 74.9355 369.902 73.4299 367.012 70.54C364.122 67.6502 362.616 64.0784 362.616 59.8179C362.616 55.8275 364.122 52.2557 367.012 49.3659Z" fill="black"/>
<path d="M362.615 119.908C362.615 111.63 369.326 104.912 377.604 104.912C385.875 104.912 392.587 111.63 392.587 119.908V277.276C392.587 285.56 385.875 292.258 377.604 292.258C369.326 292.258 362.615 285.56 362.615 277.276V119.908Z" fill="black"/>
<path d="M512.496 44.9663C512.496 36.6884 519.207 29.9702 527.485 29.9702C535.756 29.9702 542.468 36.6884 542.468 44.9663V277.274C542.468 285.559 535.756 292.257 527.485 292.257C519.207 292.257 512.496 285.559 512.496 277.274V44.9663Z" fill="black"/>
<path d="M602.559 44.967C598.292 44.967 594.727 46.4795 591.837 49.3625C588.94 52.2524 587.428 55.8309 587.428 59.8146C587.428 64.0751 588.94 67.6536 591.837 70.5367C594.727 73.4265 598.292 74.939 602.559 74.939C606.678 74.939 610.121 73.4265 613.011 70.5367C615.901 67.6536 617.413 64.0751 617.413 59.8146C617.413 55.6891 615.901 52.2524 613.011 49.3625C610.263 46.4795 606.678 44.967 602.559 44.967Z" fill="black"/>
<path d="M587.434 119.908C587.434 111.63 594.146 104.912 602.423 104.912C610.695 104.912 617.406 111.63 617.406 119.908V277.276C617.406 285.56 610.695 292.258 602.423 292.258C594.146 292.258 587.434 285.56 587.434 277.276V119.908Z" fill="black"/>
<path d="M684.981 225.925H786.733C790.527 225.925 793.768 224.71 796.213 222.293C798.508 220.017 799.724 217.337 800 214.109C799.224 174.739 768.415 138.906 727.741 138.906C702.023 138.906 677.243 153.544 664.954 176.109C658.371 188.175 655.346 202.01 655.346 215.716C655.346 230.354 658.729 243.656 665.495 255.202C678.418 277.193 701.888 292.263 727.741 292.263C739.348 292.263 750.455 291.298 761.575 287.557C770.913 284.478 778.752 280.319 784.984 275.478C788.252 272.98 790.122 269.273 790.122 265.141C790.122 259.341 786.253 254.432 780.94 252.811C775.322 251.103 770.643 253.851 766.301 257.079C757.679 263.81 745.505 267.423 734.641 267.423C720.84 267.423 709.072 263.527 699.464 255.735C690.936 248.889 685.393 239.888 682.82 229.018C682.321 227.309 683.043 226.121 684.981 225.925ZM727.741 163.746C749.928 163.746 768.334 178.52 771.723 196.784C771.723 196.926 771.581 201.476 766.706 202.557C740.941 202.557 715.128 202.185 689.363 202.543C684.042 202.617 683.522 196.959 684.697 193.05C689.626 176.535 707.06 163.746 727.741 163.746Z" fill="black"/>
<path d="M312.735 519.257H324.074V414.682H312.735V519.257Z" fill="black"/>
<path d="M287.764 417.434H235.666V427.602H276.424V459.074H235.666V514.109H296.32V503.941H246.996V469.243H287.764V417.434Z" fill="black"/>
<path fill-rule="evenodd" clip-rule="evenodd" d="M400.811 456.201C402.331 452.606 403.102 448.703 403.102 444.461C403.102 440.322 402.331 436.449 400.811 432.875C399.363 429.28 397.268 426.209 394.546 423.651C391.885 421.021 388.67 418.988 384.89 417.55C381.11 416.04 376.971 415.28 372.462 415.28C367.891 415.28 363.71 416.04 359.93 417.55C356.222 418.988 353.018 421.021 350.275 423.651C347.625 426.209 345.53 429.28 344.01 432.875C342.561 436.449 341.842 440.322 341.842 444.461C341.842 448.703 342.561 452.606 344.01 456.201C345.53 459.796 347.625 462.857 350.275 465.405C353.018 468.045 356.222 470.078 359.93 471.506C363.71 472.944 367.891 473.663 372.462 473.663C376.971 473.663 381.11 472.944 384.89 471.506C388.67 470.078 391.885 468.045 394.546 465.405C397.268 462.857 399.363 459.796 400.811 456.201ZM386.575 430.954C390.036 434.693 391.762 439.212 391.762 444.461C391.762 449.823 390.036 454.363 386.575 458.112C383.124 461.779 378.419 463.618 372.462 463.618C366.432 463.618 361.697 461.779 358.236 458.112C354.856 454.363 353.172 449.823 353.172 444.461C353.172 439.212 354.856 434.693 358.236 430.954C361.697 427.205 366.432 425.325 372.462 425.325C378.419 425.325 383.124 427.205 386.575 430.954Z" fill="black"/>
<path fill-rule="evenodd" clip-rule="evenodd" d="M184.94 443.067C186.172 440.454 186.796 437.618 186.796 434.535C186.796 431.527 186.172 428.712 184.94 426.115C183.766 423.502 182.067 421.27 179.861 419.412C177.705 417.501 175.099 416.023 172.036 414.978C168.972 413.88 165.617 413.328 161.962 413.328C158.258 413.328 154.87 413.88 151.806 414.978C148.801 416.023 146.203 417.501 143.98 419.412C141.833 421.27 140.134 423.502 138.902 426.115C137.728 428.712 137.146 431.527 137.146 434.535C137.146 437.618 137.728 440.454 138.902 443.067C140.134 445.679 141.833 447.904 143.98 449.755C146.203 451.673 148.801 453.151 151.806 454.189C154.87 455.234 158.258 455.757 161.962 455.757C165.617 455.757 168.972 455.234 172.036 454.189C175.099 453.151 177.705 451.673 179.861 449.755C182.067 447.904 183.766 445.679 184.94 443.067ZM173.401 424.719C176.207 427.436 177.605 430.72 177.605 434.535C177.605 438.431 176.207 441.731 173.401 444.455C170.604 447.12 166.791 448.456 161.962 448.456C157.076 448.456 153.238 447.12 150.432 444.455C147.693 441.731 146.328 438.431 146.328 434.535C146.328 430.72 147.693 427.436 150.432 424.719C153.238 421.994 157.076 420.628 161.962 420.628C166.791 420.628 170.604 421.994 173.401 424.719Z" fill="black"/>
<path d="M420.103 519.257H431.443V414.682H420.103V519.257Z" fill="black"/>
<path d="M412.389 503.942H337.859V514.111H412.389V503.942Z" fill="black"/>
<path d="M648.412 415.157V456.797H662.032V414.684H673.372V519.259H662.032V466.966H648.412V518.057H637.072V415.157H648.412Z" fill="black"/>
<path d="M521.131 456.554H554.668V414.687H565.997V519.251H554.668V466.61H521.131V456.554Z" fill="black"/>
<path d="M598.578 427.604H584.372V417.436H629.711V427.604H609.712C609.589 431.014 609.445 434.435 609.26 436.859C608.86 442.2 608.336 447.346 607.699 452.287C610.267 462.106 613.924 471.546 618.669 480.647C622.86 488.628 627.759 495.766 633.347 502.063L625.5 510.064C621.319 505.309 617.478 500.019 613.965 494.164C609.938 487.385 606.559 480.523 603.837 473.59C602.152 480.523 600.088 487.385 597.684 494.164C594.932 501.909 591.953 508.215 586.201 516.936L576.535 510.773C585.132 497.615 590.813 481.787 593.822 466.534C596.472 455.307 598.147 440.742 598.578 427.604Z" fill="black"/>
<path d="M504.008 435.619C504.409 430.268 504.645 420.058 504.727 415.754H493.398C493.757 431.069 491.97 450.924 488.57 465.294C485.561 480.547 479.881 496.386 471.273 509.523L480.949 515.697C486.701 506.966 489.669 500.68 492.432 492.924C494.836 486.156 496.9 479.294 498.585 472.351C501.307 479.294 504.686 486.156 508.713 492.924C512.739 499.622 517.187 505.61 522.107 510.879L525.969 515.049L534.125 506.966L530.304 503.217C523.791 496.355 518.163 488.426 513.417 479.417C508.672 470.317 505.015 460.867 502.447 451.058C503.084 446.107 503.608 440.971 504.008 435.619Z" fill="black"/>
<path d="M216.218 472.684H203.565V413.328H216.218V472.684ZM219.746 510.376V519.4H142.979V493.586H203.808V485.819H142.736V477.024H155.632V466.859C150.522 467.011 141.155 467.041 141.155 467.041H126.312V458.749H142.858C148.697 458.749 160.985 458.749 160.985 458.749H178.99H196.996V466.859H182.959H168.284V477.024H216.218V501.924H155.389V510.376H219.746Z" fill="black"/>
</svg>
