<svg width="500" height="202" viewBox="0 0 500 202" fill="none" xmlns="http://www.w3.org/2000/svg">
<path d="M100.884 201.313C101.935 201.313 102.979 201.3 104.015 201.265L104.168 201.244C106.812 200.882 109.352 200.541 111.745 200.172C124.7 198.398 131.386 196.575 131.386 191.949C131.386 187.315 124.7 185.499 111.745 183.725C109.352 183.363 106.812 183.015 104.175 182.653L104.168 182.646C94.56 181.338 83.6645 179.856 73.9726 176.739C61.8248 172.662 51.6111 165.962 51.6111 154.496C51.6111 143.03 61.8248 136.33 73.9726 132.246C83.6645 129.136 94.56 127.647 104.168 126.339C106.812 125.977 109.352 125.629 111.745 125.268C124.7 123.493 131.386 121.671 131.386 117.044C131.386 112.417 124.7 110.587 111.745 108.813C109.352 108.451 106.812 108.11 104.168 107.749C94.56 106.434 83.6645 104.945 73.9726 101.828C61.8248 97.7506 51.6111 91.0505 51.6111 79.5914C51.6111 68.1184 61.8248 61.4253 73.9726 57.3482C83.6645 54.2242 94.56 52.7423 104.168 51.4343C106.812 51.0655 109.352 50.7176 111.745 50.3628C124.7 48.5886 131.386 46.7588 131.386 42.132C131.386 37.5053 124.7 35.6754 111.745 33.9082C109.352 33.5464 106.812 33.1986 104.168 32.8368C94.56 31.5287 83.6645 30.0398 73.9726 26.9298C64.6495 23.792 56.4814 19.1235 53.1766 11.9433C21.5198 28.9336 0.000127264 62.288 0.000128941 100.659C0.00013137 156.243 45.1684 201.313 100.884 201.313Z" fill="white"/>
<path d="M100.885 -6.89485e-06C156.6 -9.33027e-06 201.769 45.0709 201.769 100.662C201.769 138.49 180.847 171.455 149.921 188.64C147.277 170.62 122.62 166.765 97.1066 162.778C94.4627 162.368 91.798 161.951 89.1541 161.519C78.9405 159.849 75.079 158.103 75.079 154.492C75.079 150.888 78.9405 149.149 89.1541 147.472C91.798 147.041 94.4558 146.623 97.1066 146.213C124.109 141.989 150.158 137.919 150.158 117.04C150.158 96.1601 124.109 92.0899 97.1066 87.8737C94.4558 87.4562 91.798 87.0457 89.1541 86.6074C78.9405 84.9376 75.079 83.1912 75.079 79.5872C75.079 75.9832 78.9405 74.2369 89.1541 72.5671C91.798 72.1288 94.4558 71.7183 97.1066 71.3008C124.109 67.0845 150.158 63.0144 150.158 42.1348C150.158 21.2553 124.109 17.1851 97.1066 12.9619C94.4558 12.5514 91.798 12.1339 89.1541 11.7026C78.9404 10.0258 75.079 8.27946 75.079 4.68242C75.079 4.17452 75.1556 3.7014 75.3156 3.26308C83.4837 1.13407 92.0485 -6.50861e-06 100.885 -6.89485e-06Z" fill="white"/>
<path d="M273.576 27.9255C273.576 22.7421 277.772 18.5398 282.941 18.5398C288.11 18.5398 292.299 22.7421 292.299 27.9255V173.387C292.299 178.57 288.11 182.772 282.941 182.772C277.772 182.772 273.576 178.57 273.576 173.387V27.9255Z" fill="white"/>
<path d="M229.507 30.681C231.309 28.8721 233.542 27.9258 236.207 27.9258C238.781 27.9258 241.015 28.8721 242.733 30.681C244.542 32.49 245.488 34.6399 245.488 37.2211C245.488 39.8928 244.542 42.1331 242.733 43.9421C240.931 45.751 238.781 46.6973 236.207 46.6973C233.542 46.6973 231.309 45.751 229.507 43.9421C227.698 42.1331 226.752 39.8928 226.752 37.2211C226.752 34.7303 227.698 32.49 229.507 30.681Z" fill="white"/>
<path d="M226.755 74.8478C226.755 69.6644 230.951 65.4621 236.12 65.4621C241.297 65.4621 245.485 69.6644 245.485 74.8478V173.387C245.485 178.571 241.297 182.773 236.12 182.773C230.951 182.773 226.755 178.571 226.755 173.387V74.8478Z" fill="white"/>
<path d="M320.39 27.9255C320.39 22.7421 324.585 18.5398 329.755 18.5398C334.931 18.5398 339.12 22.7421 339.12 27.9255V173.387C339.12 178.57 334.931 182.772 329.755 182.772C324.585 182.772 320.39 178.57 320.39 173.387V27.9255Z" fill="white"/>
<path d="M376.662 27.9258C373.997 27.9258 371.764 28.8721 369.955 30.681C368.153 32.49 367.213 34.7303 367.213 37.2211C367.213 39.8928 368.153 42.1331 369.955 43.9421C371.764 45.751 373.997 46.6973 376.662 46.6973C379.236 46.6973 381.386 45.751 383.181 43.9421C384.99 42.1331 385.936 39.8928 385.936 37.2211C385.936 34.6399 384.99 32.49 383.181 30.681C381.469 28.8721 379.236 27.9258 376.662 27.9258Z" fill="white"/>
<path d="M367.21 74.8478C367.21 69.6644 371.406 65.4621 376.575 65.4621C381.745 65.4621 385.933 69.6644 385.933 74.8478V173.387C385.933 178.571 381.745 182.773 376.575 182.773C371.406 182.773 367.21 178.571 367.21 173.387V74.8478Z" fill="white"/>
<path d="M454.86 102.301C468.726 102.301 480.227 111.554 482.335 122.986C482.335 123.069 482.252 125.929 479.211 126.604C463.111 126.604 446.984 126.374 430.884 126.597C427.558 126.645 427.238 123.097 427.976 120.648C431.051 110.309 441.947 102.301 454.86 102.301ZM428.15 141.235H491.721C494.086 141.235 496.118 140.477 497.635 138.967C499.068 137.534 499.833 135.85 500 133.832C499.52 109.182 480.269 86.7439 454.86 86.7439C438.795 86.7439 423.314 95.9139 415.64 110.038C411.521 117.594 409.636 126.263 409.636 134.841C409.636 144.011 411.751 152.333 415.974 159.561C424.052 173.33 438.711 182.772 454.86 182.772C462.109 182.772 469.053 182.166 475.997 179.829C481.827 177.895 486.732 175.285 490.621 172.266C492.667 170.694 493.836 168.377 493.836 165.788C493.836 162.157 491.422 159.081 488.096 158.066C484.582 156.994 481.667 158.72 478.954 160.737C473.562 164.954 465.964 167.215 459.173 167.215C450.553 167.215 443.192 164.773 437.195 159.902C431.865 155.61 428.4 149.981 426.8 143.169C426.494 142.098 426.939 141.354 428.15 141.235Z" fill="white"/>
</svg>
