<svg width="160" height="160" viewBox="0 0 160 160" fill="none" xmlns="http://www.w3.org/2000/svg">
<path d="M80.0009 5.06963e-05C124.166 4.87658e-05 160 35.8184 160 80.0149C160 110.075 143.417 136.276 118.894 149.942C116.792 135.617 97.2433 132.542 77.0042 129.373C74.9019 129.059 72.7839 128.714 70.6972 128.385C62.6173 127.051 59.5265 125.655 59.5265 122.799C59.5265 119.928 62.6173 118.547 70.6972 117.214C72.7995 116.853 74.9019 116.539 77.0042 116.21C98.42 112.852 119.067 109.62 119.067 93.0369C119.067 76.4377 98.42 73.1901 77.0042 69.8326C74.9019 69.5188 72.7995 69.1893 70.6972 68.8442C62.6173 67.5106 59.5265 66.1299 59.5265 63.2588C59.5265 60.4034 62.6173 59.0071 70.6972 57.6892C72.7995 57.3283 74.9019 57.0145 77.0042 56.6694C98.42 53.3119 119.067 50.0799 119.067 33.4964C119.067 16.8973 98.42 13.6653 77.0042 10.3078C74.9019 9.99405 72.7995 9.6489 70.6972 9.30374C62.6173 7.98585 59.5265 6.58951 59.5265 3.71839C59.5265 2.80842 59.8403 2.57308 60.7189 2.33774C66.9004 0.815891 73.3487 5.09871e-05 80.0009 5.06963e-05Z" fill="#242424"/>
<path d="M79.9991 160C82.9173 160 87.4672 159.875 91.6405 159.153C99.5165 157.788 104.176 156.235 104.176 152.548C104.176 148.877 98.8732 147.433 88.6125 146.021C86.7141 145.739 84.7059 145.457 82.6035 145.174C74.9943 144.123 66.3495 142.946 58.6618 140.467C49.013 137.235 40.9331 131.901 40.9331 122.801C40.9331 113.686 49.013 108.352 58.6618 105.12C66.3495 102.641 74.9943 101.464 82.6035 100.413C84.6902 100.131 86.7141 99.8482 88.6125 99.5501C98.8732 98.1537 104.176 96.7103 104.176 93.0234C104.176 89.3364 98.8732 87.893 88.6125 86.481C86.7141 86.1986 84.6902 85.9162 82.6035 85.6338C74.9943 84.5826 66.3495 83.4059 58.6618 80.9427C49.013 77.6951 40.9331 72.3607 40.9331 63.261C40.9331 54.1456 49.013 48.827 58.6618 45.5793C66.3495 43.1004 74.9943 41.9237 82.6035 40.8726C84.6902 40.6058 86.7141 40.3077 88.6125 40.041C98.8732 38.629 104.176 37.1699 104.176 33.4986C104.176 29.8117 98.8732 28.3526 88.6125 26.9563C86.7141 26.6582 84.6902 26.3914 82.6035 26.109C74.9943 25.0579 66.3495 23.8812 58.6618 21.4023C51.2722 18.9234 44.7769 15.205 42.1725 9.49419C17.0541 23.0026 -6.62632e-06 49.5016 -5.29313e-06 80.0014C-3.36193e-06 124.182 35.8184 160 79.9991 160Z" fill="#242424"/>
</svg>
