<svg width="617" height="400" viewBox="0 0 617 400" fill="none" xmlns="http://www.w3.org/2000/svg">
<path d="M124.083 248.167C125.373 248.167 126.652 248.151 127.941 248.109L128.123 248.083C131.373 247.641 134.493 247.21 137.446 246.763C153.374 244.579 161.6 242.327 161.6 236.623C161.6 230.919 153.374 228.667 137.446 226.483C134.503 226.031 131.378 225.61 128.134 225.168L128.128 225.157C116.304 223.546 102.909 221.715 90.9861 217.873C76.0367 212.849 63.4895 204.587 63.4895 190.454C63.4895 176.321 76.0367 168.053 90.9861 163.035C102.909 159.193 116.304 157.357 128.123 155.745C131.373 155.303 134.493 154.872 137.446 154.424C153.373 152.235 161.6 149.984 161.6 144.285C161.6 138.575 153.373 136.324 137.446 134.14C134.493 133.688 131.373 133.266 128.123 132.819C116.304 131.202 102.909 129.366 90.9861 125.534C76.0367 120.506 63.4895 112.243 63.4895 98.1156C63.4895 83.9773 76.0367 75.7148 90.9861 70.6917C102.909 66.8491 116.304 65.0187 128.123 63.4016C131.373 62.9596 134.493 62.528 137.446 62.0809C153.373 59.8917 161.6 57.6402 161.6 51.9412C161.6 46.237 153.373 43.9855 137.446 41.7964C134.493 41.3492 131.373 40.928 128.123 40.4756C116.304 38.8637 102.909 37.0282 90.9861 33.1907C79.5257 29.3376 69.4693 23.5814 65.4082 14.7209C26.472 35.6606 -0.000218038 76.7859 -0.000215971 124.083C-0.000212975 192.617 55.5494 248.167 124.083 248.167Z" fill="black"/>
<path d="M124.083 3.00407e-05C192.622 2.70448e-05 248.172 55.5549 248.172 124.083C248.172 170.726 222.438 211.352 184.396 232.546C181.141 210.327 150.826 205.585 119.435 200.661L119.424 200.661C116.175 200.157 112.904 199.647 109.654 199.111C97.1017 197.047 92.3438 194.889 92.3438 190.454C92.3438 186.008 97.1017 183.855 109.654 181.796C112.914 181.26 116.175 180.751 119.435 180.241C152.651 175.041 184.682 170.024 184.682 144.284C184.682 118.545 152.651 113.522 119.435 108.323C116.18 107.813 112.914 107.303 109.654 106.773C97.1017 104.704 92.3438 102.551 92.3438 98.1153C92.3438 93.6695 97.1016 91.5168 109.654 89.4576C112.914 88.9169 116.18 88.4125 119.435 87.8977C152.651 82.6979 184.682 77.6801 184.682 51.941C184.682 26.2019 152.651 21.1789 119.435 15.9791C116.18 15.4747 112.914 14.9599 109.654 14.4295C97.1016 12.3652 92.3438 10.2073 92.3438 5.77183C92.3438 5.14265 92.4374 4.56026 92.635 4.01948C102.676 1.39877 113.221 3.05155e-05 124.083 3.00407e-05Z" fill="black"/>
<path d="M336.969 34.6296C336.969 28.2546 342.138 23.0808 348.513 23.0808C354.888 23.0808 360.051 28.2546 360.051 34.6296V213.534C360.051 219.915 354.888 225.073 348.513 225.073C342.138 225.073 336.969 219.915 336.969 213.534V34.6296Z" fill="black"/>
<path d="M282.643 38.0175C284.868 35.792 287.619 34.6325 290.9 34.6325C294.077 34.6325 296.833 35.792 298.95 38.0175C301.175 40.2431 302.345 42.8898 302.345 46.0668C302.345 49.3479 301.175 52.0986 298.95 54.3241C296.724 56.5497 294.077 57.7092 290.9 57.7092C287.619 57.7092 284.868 56.5497 282.643 54.3241C280.417 52.0986 279.258 49.3479 279.258 46.0668C279.258 42.9938 280.417 40.2431 282.643 38.0175Z" fill="black"/>
<path d="M279.257 92.3433C279.257 85.9683 284.425 80.7945 290.8 80.7945C297.17 80.7945 302.339 85.9683 302.339 92.3433V213.535C302.339 219.916 297.17 225.074 290.8 225.074C284.425 225.074 279.257 219.916 279.257 213.535V92.3433Z" fill="black"/>
<path d="M394.683 34.6296C394.683 28.2546 399.851 23.0808 406.226 23.0808C412.596 23.0808 417.765 28.2546 417.765 34.6296V213.534C417.765 219.915 412.596 225.073 406.226 225.073C399.851 225.073 394.683 219.915 394.683 213.534V34.6296Z" fill="black"/>
<path d="M464.042 34.6301C460.756 34.6301 458.01 35.7948 455.785 38.0151C453.554 40.2407 452.389 42.9966 452.389 46.0644C452.389 49.3455 453.554 52.1014 455.785 54.3218C458.01 56.5473 460.756 57.712 464.042 57.712C467.214 57.712 469.866 56.5473 472.092 54.3218C474.317 52.1014 475.482 49.3455 475.482 46.0644C475.482 42.8874 474.317 40.2407 472.092 38.0151C469.975 35.7948 467.214 34.6301 464.042 34.6301Z" fill="black"/>
<path d="M452.394 92.3433C452.394 85.9683 457.563 80.7945 463.938 80.7945C470.308 80.7945 475.476 85.9683 475.476 92.3433V213.535C475.476 219.916 470.308 225.074 463.938 225.074C457.563 225.074 452.394 219.916 452.394 213.535V92.3433Z" fill="black"/>
<path d="M527.517 173.989H605.878C608.8 173.989 611.296 173.053 613.179 171.192C614.947 169.44 615.882 167.375 616.096 164.89C615.498 134.57 591.771 106.974 560.447 106.974C540.641 106.974 521.558 118.247 512.094 135.625C507.024 144.917 504.695 155.572 504.695 166.127C504.695 177.401 507.3 187.644 512.51 196.536C522.463 213.472 540.537 225.078 560.447 225.078C569.386 225.078 577.939 224.334 586.504 221.453C593.695 219.082 599.732 215.879 604.531 212.151C607.048 210.227 608.488 207.372 608.488 204.19C608.488 199.723 605.509 195.943 601.417 194.695C597.09 193.38 593.487 195.496 590.143 197.981C583.503 203.166 574.128 205.948 565.761 205.948C555.133 205.948 546.07 202.947 538.67 196.947C532.103 191.674 527.834 184.743 525.853 176.371C525.468 175.055 526.024 174.14 527.517 173.989ZM560.447 126.104C577.534 126.104 591.709 137.482 594.319 151.547C594.319 151.656 594.21 155.161 590.455 155.993C570.613 155.993 550.734 155.707 530.891 155.982C526.794 156.04 526.394 151.682 527.298 148.672C531.094 135.953 544.52 126.104 560.447 126.104Z" fill="black"/>
<path d="M240.843 399.89H249.576V319.355H240.843V399.89Z" fill="black"/>
<path d="M221.612 321.474H181.491V329.305H212.879V353.542H181.491V395.926H228.201V388.094H190.216V361.373H221.612V321.474Z" fill="black"/>
<path fill-rule="evenodd" clip-rule="evenodd" d="M308.672 351.33C309.843 348.561 310.436 345.555 310.436 342.288C310.436 339.1 309.843 336.118 308.672 333.365C307.557 330.597 305.943 328.232 303.847 326.262C301.798 324.237 299.322 322.671 296.411 321.563C293.5 320.4 290.313 319.815 286.84 319.815C283.32 319.815 280.1 320.4 277.189 321.563C274.334 322.671 271.866 324.237 269.754 326.262C267.713 328.232 266.099 330.597 264.928 333.365C263.813 336.118 263.259 339.1 263.259 342.288C263.259 345.555 263.813 348.561 264.928 351.33C266.099 354.098 267.713 356.456 269.754 358.417C271.866 360.45 274.334 362.017 277.189 363.116C280.1 364.224 283.32 364.777 286.84 364.777C290.313 364.777 293.5 364.224 296.411 363.116C299.322 362.017 301.798 360.45 303.847 358.417C305.943 356.456 307.557 354.098 308.672 351.33ZM297.709 331.886C300.375 334.766 301.703 338.246 301.703 342.288C301.703 346.417 300.375 349.914 297.709 352.801C295.051 355.625 291.428 357.041 286.84 357.041C282.197 357.041 278.55 355.625 275.884 352.801C273.282 349.914 271.984 346.417 271.984 342.288C271.984 338.246 273.282 334.766 275.884 331.886C278.55 328.999 282.197 327.551 286.84 327.551C291.428 327.551 295.051 328.999 297.709 331.886Z" fill="black"/>
<path fill-rule="evenodd" clip-rule="evenodd" d="M142.425 341.215C143.374 339.203 143.855 337.018 143.855 334.644C143.855 332.327 143.374 330.16 142.425 328.16C141.521 326.148 140.213 324.429 138.514 322.997C136.854 321.526 134.847 320.387 132.488 319.583C130.128 318.738 127.545 318.312 124.73 318.312C121.877 318.312 119.268 318.738 116.908 319.583C114.594 320.387 112.594 321.526 110.882 322.997C109.228 324.429 107.92 326.148 106.971 328.16C106.067 330.16 105.618 332.327 105.618 334.644C105.618 337.018 106.067 339.203 106.971 341.215C107.92 343.227 109.228 344.94 110.882 346.365C112.594 347.843 114.594 348.981 116.908 349.78C119.268 350.585 121.877 350.987 124.73 350.987C127.545 350.987 130.128 350.585 132.488 349.78C134.847 348.981 136.854 347.843 138.514 346.365C140.213 344.94 141.521 343.227 142.425 341.215ZM133.539 327.085C135.7 329.177 136.777 331.706 136.777 334.644C136.777 337.645 135.7 340.186 133.539 342.284C131.385 344.336 128.449 345.365 124.73 345.365C120.967 345.365 118.011 344.336 115.851 342.284C113.741 340.186 112.69 337.645 112.69 334.644C112.69 331.706 113.741 329.177 115.851 327.085C118.011 324.986 120.967 323.934 124.73 323.934C128.449 323.934 131.385 324.986 133.539 327.085Z" fill="black"/>
<path d="M323.53 399.89H332.263V319.355H323.53V399.89Z" fill="black"/>
<path d="M317.589 388.096H260.192V395.927H317.589V388.096Z" fill="black"/>
<path d="M499.354 319.72V351.789H509.843V319.356H518.576V399.891H509.843V359.62H499.354V398.966H490.621V319.72H499.354Z" fill="black"/>
<path d="M401.333 351.601H427.16V319.359H435.885V399.886H427.16V359.345H401.333V351.601Z" fill="black"/>
<path d="M460.976 329.307H450.036V321.475H484.952V329.307H469.551C469.456 331.933 469.345 334.567 469.203 336.434C468.895 340.547 468.491 344.51 468.001 348.315C469.978 355.877 472.794 363.147 476.449 370.155C479.676 376.302 483.45 381.799 487.753 386.649L481.709 392.811C478.49 389.148 475.531 385.074 472.826 380.565C469.725 375.345 467.123 370.061 465.026 364.721C463.729 370.061 462.139 375.345 460.288 380.565C458.168 386.53 455.874 391.387 451.444 398.103L444.001 393.356C450.622 383.223 454.996 371.034 457.314 359.287C459.355 350.641 460.644 339.424 460.976 329.307Z" fill="black"/>
<path d="M388.146 335.479C388.455 331.358 388.637 323.495 388.7 320.181H379.975C380.252 331.975 378.876 347.266 376.257 358.332C373.94 370.079 369.565 382.277 362.936 392.394L370.388 397.148C374.818 390.424 377.104 385.583 379.232 379.611C381.083 374.398 382.673 369.114 383.97 363.767C386.066 369.114 388.669 374.398 391.769 379.611C394.87 384.768 398.295 389.38 402.084 393.438L405.059 396.65L411.34 390.424L408.397 387.537C403.382 382.253 399.047 376.146 395.392 369.209C391.738 362.2 388.922 354.923 386.944 347.368C387.435 343.556 387.838 339.6 388.146 335.479Z" fill="black"/>
<path d="M166.513 364.023H156.769V318.312H166.513V364.023ZM169.23 393.051V400H110.111V380.12H156.957V374.139H109.924V367.366H119.855V359.537L109 359.5L102.86 359.537L97.2754 359.5V353.292H110.017C114.515 353.292 123.977 353.292 123.977 353.292H137.844H151.71V359.537H140.9H129.599V367.366H166.513V386.542H119.668V393.051H169.23Z" fill="black"/>
</svg>
